<?xml version="1.0" encoding="UTF-8" standalone="no"?>
<!-- Created with Inkscape (http://www.inkscape.org/) -->

<svg
   width="118mm"
   height="118mm"
   viewBox="0 0 418.11021 418.11024"
   id="svg2"
   version="1.1"
   inkscape:version="1.2 (1:1.2+202206011327+fc4e4096c5)"
   sodipodi:docname="logo.svg"
   inkscape:export-xdpi="300.06439"
   inkscape:export-ydpi="300.06439"
   xmlns:inkscape="http://www.inkscape.org/namespaces/inkscape"
   xmlns:sodipodi="http://sodipodi.sourceforge.net/DTD/sodipodi-0.dtd"
   xmlns="http://www.w3.org/2000/svg"
   xmlns:svg="http://www.w3.org/2000/svg"
   xmlns:rdf="http://www.w3.org/1999/02/22-rdf-syntax-ns#"
   xmlns:cc="http://creativecommons.org/ns#"
   xmlns:dc="http://purl.org/dc/elements/1.1/">
  <sodipodi:namedview
     id="base"
     pagecolor="#ffffff"
     bordercolor="#666666"
     borderopacity="1.0"
     inkscape:pageopacity="0.0"
     inkscape:pageshadow="2"
     inkscape:zoom="1.979899"
     inkscape:cx="162.63456"
     inkscape:cy="231.57747"
     inkscape:document-units="px"
     inkscape:current-layer="g4575"
     showgrid="false"
     showguides="true"
     inkscape:guide-bbox="true"
     inkscape:window-width="2560"
     inkscape:window-height="1376"
     inkscape:window-x="1920"
     inkscape:window-y="27"
     inkscape:window-maximized="1"
     fit-margin-top="0"
     fit-margin-left="0"
     fit-margin-right="0"
     fit-margin-bottom="0"
     inkscape:showpageshadow="2"
     inkscape:pagecheckerboard="0"
     inkscape:deskcolor="#d1d1d1">
    <sodipodi:guide
       inkscape:locked="false"
       id="guide4162"
       orientation="0,1"
       position="-27.222209,128.61283" />
    <sodipodi:guide
       inkscape:locked="false"
       id="guide4164"
       orientation="1,0"
       position="100.6252,420.89414" />
    <sodipodi:guide
       inkscape:locked="false"
       id="guide4166"
       orientation="1,0"
       position="317.808,416.34846" />
  </sodipodi:namedview>
  <defs
     id="defs4">
    <filter
       id="filter4512"
       inkscape:label="Drop Shadow"
       style="color-interpolation-filters:sRGB"
       x="-0.068745204"
       y="-0.068645888"
       width="1.1374904"
       height="1.1372918">
      <feFlood
         id="feFlood4502"
         result="flood"
         flood-color="rgb(0,0,0)"
         flood-opacity="0.498039" />
      <feComposite
         id="feComposite4504"
         result="composite1"
         operator="in"
         in2="SourceGraphic"
         in="flood" />
      <feGaussianBlur
         id="feGaussianBlur4506"
         result="blur"
         stdDeviation="10"
         in="composite1" />
      <feOffset
         id="feOffset4508"
         result="offset"
         dy="0"
         dx="0" />
      <feComposite
         id="feComposite4510"
         result="composite2"
         operator="over"
         in2="offset"
         in="SourceGraphic" />
    </filter>
  </defs>
  <metadata
     id="metadata7">
    <rdf:RDF>
      <cc:Work
         rdf:about="">
        <dc:format>image/svg+xml</dc:format>
        <dc:type
           rdf:resource="http://purl.org/dc/dcmitype/StillImage" />
        <dc:title />
      </cc:Work>
    </rdf:RDF>
  </metadata>
  <g
     transform="translate(32.439922,-666.74248)"
     id="layer1"
     inkscape:groupmode="layer"
     inkscape:label="Layer 1">
    <ellipse
       style="display:inline;fill:#02a9a2;fill-opacity:1;stroke:none;stroke-width:1.77165353;stroke-miterlimit:4;stroke-dasharray:none;stroke-opacity:1;filter:url(#filter4512)"
       id="ellipse6885"
       cx="177.02924"
       cy="875.08044"
       rx="174.55763"
       ry="174.81018"
       inkscape:label="circle" />
    <g
       style="display:inline;fill:#018c87;fill-opacity:1"
       id="g4522"
       transform="translate(-1.7547608e-6,-6.6750146)">
      <g
         id="text4510"
         style="font-style:normal;font-variant:normal;font-weight:normal;font-stretch:normal;line-height:0%;font-family:'Source Sans Pro';-inkscape-font-specification:'Source Sans Pro';letter-spacing:0px;word-spacing:0px;fill:#018c87;fill-opacity:1;stroke:none;stroke-width:1px;stroke-linecap:butt;stroke-linejoin:miter;stroke-opacity:1"
         aria-label="ap">
        <g
           id="g4747"
           style="fill:#018c87;fill-opacity:1">
          <g
             style="font-size:180px;line-height:1.25;letter-spacing:-12.35999966px;fill:#018c87;fill-opacity:1"
             id="g4744">
            <path
               style="fill:#018c87;fill-opacity:1;stroke-width:1.06666672px"
               d="m 310.43359,130.92773 c -1.305,0 -2.55478,0.0685 -3.75781,0.20118 -2.40606,0.2654 -4.62335,0.79058 -6.70312,1.55859 -1.55983,0.57601 -3.04283,1.28869 -4.47266,2.12891 -0.95326,0.56004 -1.88244,1.17605 -2.79492,1.84765 -0.45623,0.33585 -0.90884,0.68598 -1.35742,1.04883 -1.79438,1.45125 -3.53344,3.11656 -5.27344,4.97656 l 7.67969,7.67969 20.76171,20.76172 c -0.006,0.008 -0.0117,0.0154 -0.0176,0.0234 -2.22481,3.05131 -4.96206,6.28921 -8.16211,9.76953 -1.02897,1.11909 -2.1117,2.26659 -3.23438,3.4375 -0.12564,0.13094 -0.25407,0.26486 -0.38086,0.39648 -1.00592,1.04499 -2.05005,2.11036 -3.12695,3.19922 -0.20943,0.21163 -0.4188,0.42338 -0.63086,0.63672 -1.00273,1.00943 -2.03726,2.04083 -3.09766,3.08984 -0.24696,0.24421 -0.49021,0.48406 -0.74023,0.73047 -2.65474,2.61762 -5.46649,5.35087 -8.45117,8.23438 v 5.33594 l -21.47071,-21.47071 c -0.1512,-0.1512 -0.30902,-0.2936 -0.46289,-0.4414 -0.14386,-0.1382 -0.2874,-0.27691 -0.43359,-0.41211 -0.3039,-0.28106 -0.61577,-0.55231 -0.92969,-0.82032 -0.13623,-0.11631 -0.27009,-0.23577 -0.4082,-0.34961 -0.90661,-0.74722 -1.85253,-1.44149 -2.83984,-2.08007 -0.13094,-0.0847 -0.26609,-0.16335 -0.39844,-0.2461 -0.35688,-0.22312 -0.71686,-0.44151 -1.08399,-0.65039 -0.19092,-0.10863 -0.38443,-0.21361 -0.57812,-0.31836 -0.33132,-0.17918 -0.66647,-0.35375 -1.00586,-0.52148 -0.19476,-0.0962 -0.39048,-0.19069 -0.58789,-0.28321 -0.36621,-0.17152 -0.73796,-0.33383 -1.11328,-0.49218 -0.18007,-0.076 -0.35886,-0.15365 -0.54102,-0.22656 -0.4468,-0.17893 -0.90197,-0.34748 -1.36133,-0.50782 -0.11268,-0.0393 -0.22249,-0.0829 -0.33593,-0.12109 -0.59357,-0.19995 -1.1964,-0.38377 -1.81055,-0.55274 -0.007,-0.002 -0.0142,-0.006 -0.0215,-0.008 -0.0511,-0.014 -0.10499,-0.0233 -0.15625,-0.0371 -0.52504,-0.14146 -1.05774,-0.272 -1.59766,-0.39062 -0.22031,-0.0484 -0.44519,-0.0902 -0.66797,-0.13477 -0.40224,-0.0805 -0.80652,-0.15673 -1.2168,-0.22461 -0.24438,-0.0404 -0.49105,-0.0773 -0.73828,-0.11328 -0.41555,-0.0604 -0.8362,-0.11449 -1.25976,-0.16211 -0.22739,-0.0256 -0.4539,-0.0524 -0.6836,-0.0742 -0.47433,-0.0451 -0.9553,-0.0802 -1.43945,-0.10937 -0.19962,-0.012 -0.39637,-0.0278 -0.59766,-0.0371 -0.68148,-0.0315 -1.3698,-0.0508 -2.07031,-0.0508 -0.64175,0 -1.28045,0.0264 -1.91797,0.0664 -0.16369,0.0103 -0.32685,0.0263 -0.49023,0.0391 -0.44825,0.0352 -0.89595,0.0789 -1.3418,0.13281 -0.23009,0.0278 -0.46004,0.0572 -0.68945,0.0898 -0.42739,0.0609 -0.85244,0.13164 -1.27735,0.20899 -0.18888,0.0343 -0.37803,0.066 -0.5664,0.10351 -0.49666,0.099 -0.99148,0.20981 -1.48438,0.33008 -0.12425,0.0303 -0.24904,0.0563 -0.37304,0.0879 -0.59844,0.15265 -1.19479,0.32171 -1.78711,0.50391 -0.19489,0.0599 -0.38785,0.12841 -0.58203,0.1914 -0.39513,0.12824 -0.78951,0.25788 -1.18164,0.39844 -0.257,0.0921 -0.51199,0.18995 -0.76758,0.28711 -0.33649,0.12797 -0.67177,0.25989 -1.00586,0.39649 -0.25182,0.10286 -0.5035,0.20486 -0.75391,0.3125 -0.40003,0.17189 -0.79706,0.35175 -1.19336,0.53515 -0.16851,0.078 -0.33804,0.15246 -0.50586,0.23242 -0.56336,0.26852 -1.12252,0.54789 -1.67773,0.83789 -0.17749,0.0927 -0.35267,0.1904 -0.5293,0.28516 -0.35781,0.19201 -0.7142,0.38769 -1.06836,0.58789 -0.87506,0.49456 -1.73842,1.01306 -2.58984,1.55273 -0.14855,0.0942 -0.29557,0.18975 -0.44336,0.28516 -0.8662,0.55917 -1.72149,1.13474 -2.56055,1.73242 h -0.002 l -6.89258,-6.89258 h -13.05469 v 31.7461 l -25.90429,-25.9043 -0.0312,-0.0312 c -0.0473,-0.0471 -0.0988,-0.0899 -0.14649,-0.13672 -0.30643,-0.30059 -0.61981,-0.59407 -0.9414,-0.8789 -0.11437,-0.10129 -0.23332,-0.1976 -0.34961,-0.29688 -0.25851,-0.2207 -0.51903,-0.43972 -0.78711,-0.65039 -0.14777,-0.11611 -0.30042,-0.22681 -0.45118,-0.33984 -0.26871,-0.2016 -0.5403,-0.40007 -0.81835,-0.5918 -0.12985,-0.0895 -0.26069,-0.17826 -0.39258,-0.26562 -0.29636,-0.19631 -0.59757,-0.38701 -0.9043,-0.57227 -0.14787,-0.0893 -0.2969,-0.17695 -0.44727,-0.26367 -0.29575,-0.17066 -0.59717,-0.33554 -0.90234,-0.4961 -0.15606,-0.0821 -0.31021,-0.16664 -0.46875,-0.24609 -0.37586,-0.18834 -0.76055,-0.36779 -1.15039,-0.54101 -0.0885,-0.0393 -0.17443,-0.0806 -0.26367,-0.11915 -0.50045,-0.21617 -1.00988,-0.42202 -1.5332,-0.61328 -0.50985,-0.18632 -1.03271,-0.35919 -1.56446,-0.52148 -0.14686,-0.0448 -0.29872,-0.084 -0.44726,-0.12695 -0.38961,-0.11272 -0.78239,-0.22239 -1.1836,-0.32227 -0.19803,-0.0493 -0.40068,-0.0925 -0.60156,-0.13867 -0.35231,-0.0809 -0.70728,-0.1593 -1.06836,-0.23047 -0.2329,-0.0459 -0.46851,-0.0891 -0.70508,-0.13086 -0.36133,-0.0639 -0.72773,-0.12153 -1.09765,-0.17578 -0.22034,-0.0323 -0.44066,-0.065 -0.66407,-0.0937 -0.43182,-0.0558 -0.87113,-0.10362 -1.31445,-0.14649 -0.17068,-0.0165 -0.33932,-0.0343 -0.51172,-0.0488 -0.50821,-0.043 -1.02569,-0.0755 -1.54883,-0.10157 -0.13415,-0.007 -0.26524,-0.0179 -0.40039,-0.0234 -0.66363,-0.0273 -1.33592,-0.043 -2.02343,-0.043 -3.74401,0 -7.36705,0.40826 -10.83203,1.10742 -1.73257,0.34958 -3.42611,0.77148 -5.07422,1.25195 -4.94436,1.44142 -9.48662,3.40532 -13.4961,5.49805 -0.66825,0.34875 -1.32097,0.70064 -1.95898,1.05469 l -0.002,0.002 c -0.27356,0.15182 -0.53293,0.30472 -0.80078,0.45703 -1.60603,0.91329 -3.11946,1.83185 -4.50781,2.72656 l 6.14453,10.94336 18.64258,18.64258 c -0.0405,0.0118 -0.0768,0.0253 -0.11719,0.0371 -1.03774,0.30297 -2.03712,0.61825 -3.01562,0.94141 -0.31281,0.10331 -0.62095,0.20904 -0.92774,0.31445 -0.84863,0.29157 -1.67569,0.59062 -2.47851,0.89844 -0.16067,0.0616 -0.32944,0.11937 -0.48828,0.18164 -0.94786,0.37154 -1.85707,0.75701 -2.74024,1.15234 -0.21056,0.0943 -0.41419,0.19149 -0.62109,0.28711 -0.71637,0.33108 -1.41122,0.6718 -2.08399,1.01953 -0.21852,0.11295 -0.44425,0.22317 -0.6582,0.33789 -0.14957,0.0802 -0.29602,0.16112 -0.44336,0.24219 -0.43136,0.23737 -0.85333,0.47969 -1.26562,0.72461 -0.13397,0.0796 -0.27039,0.1579 -0.40235,0.23828 -0.52867,0.32205 -1.04244,0.64736 -1.53906,0.98242 -0.0379,0.0256 -0.0736,0.0524 -0.11133,0.0781 -0.44549,0.30296 -0.87725,0.61207 -1.29687,0.92578 -0.12702,0.0949 -0.2523,0.19116 -0.37696,0.28711 -0.4042,0.31112 -0.79824,0.62755 -1.17773,0.94922 -0.0413,0.0351 -0.0859,0.0683 -0.12695,0.10351 -0.42328,0.36264 -0.82644,0.73323 -1.21875,1.10938 -0.0963,0.0923 -0.18879,0.18611 -0.28321,0.2793 -0.30248,0.29834 -0.5954,0.60136 -0.8789,0.9082 -0.0907,0.0982 -0.18268,0.19584 -0.27149,0.29492 -0.35387,0.39484 -0.69628,0.79424 -1.01953,1.20312 -0.0162,0.0205 -0.0307,0.042 -0.0469,0.0625 -0.29973,0.38169 -0.58409,0.77009 -0.85742,1.16407 -0.0816,0.11763 -0.16095,0.23672 -0.24024,0.35547 -0.22206,0.33264 -0.43492,0.67021 -0.63867,1.01172 -0.0605,0.1013 -0.12474,0.20064 -0.18359,0.30273 -0.24651,0.4275 -0.47692,0.86145 -0.69532,1.30273 -0.052,0.1051 -0.1,0.21247 -0.15039,0.31836 -0.1729,0.36304 -0.33783,0.73116 -0.49219,1.10352 -0.0517,0.12473 -0.10465,0.24921 -0.15429,0.375 -0.18059,0.45769 -0.35064,0.92082 -0.50391,1.39258 -10e-4,0.003 -5.9e-4,0.007 -0.002,0.01 -0.0223,0.0689 -0.0407,0.13982 -0.0625,0.20899 -0.13285,0.42222 -0.2539,0.84965 -0.36524,1.2832 -0.035,0.13613 -0.0687,0.27291 -0.10156,0.41016 -0.10104,0.42221 -0.1923,0.85026 -0.27344,1.2832 -0.0177,0.0947 -0.0379,0.18795 -0.0547,0.2832 -0.0913,0.51726 -0.16903,1.04161 -0.23243,1.57422 -0.0147,0.12324 -0.0259,0.24898 -0.0391,0.37305 -0.0444,0.41777 -0.0798,0.84035 -0.10742,1.26758 -0.011,0.17069 -0.0209,0.34146 -0.0293,0.51367 -0.0263,0.54267 -0.0449,1.09056 -0.0449,1.64844 0,0.50503 0.0101,1.00376 0.0312,1.49609 0.0129,0.29956 0.038,0.59191 0.0586,0.88672 0.0135,0.19297 0.0223,0.38915 0.0391,0.58008 0.0189,0.21481 0.0454,0.42444 0.0684,0.63672 0.0309,0.28519 0.0595,0.57111 0.0976,0.85156 0.0215,0.15813 0.0504,0.31213 0.0742,0.46875 0.046,0.30193 0.0901,0.60412 0.14453,0.90039 0.038,0.20696 0.0848,0.40911 0.12696,0.61328 0.0511,0.24768 0.10115,0.49667 0.1582,0.74023 0.0488,0.20833 0.10315,0.4119 0.15625,0.61719 0.0594,0.22975 0.11885,0.45962 0.18359,0.68555 0.0659,0.23002 0.13761,0.45561 0.20899,0.68164 0.058,0.18364 0.11423,0.36784 0.17578,0.54883 0.0791,0.23269 0.16311,0.46116 0.24805,0.68945 0.0726,0.19504 0.14394,0.39023 0.2207,0.58203 0.0783,0.19572 0.16151,0.38775 0.24414,0.58008 0.0859,0.20001 0.17314,0.39937 0.26367,0.5957 0.0937,0.20329 0.19045,0.4042 0.28906,0.60352 0.0882,0.17827 0.17742,0.35617 0.26954,0.53125 0.10077,0.19167 0.20521,0.38054 0.31054,0.56836 0.10394,0.18535 0.21005,0.3692 0.31836,0.55078 0.10197,0.17091 0.20476,0.34026 0.31055,0.50781 0.11811,0.1871 0.23851,0.37181 0.36133,0.55469 0.11289,0.16807 0.22889,0.33355 0.3457,0.49805 0.11871,0.1672 0.23862,0.33261 0.36133,0.49609 0.11939,0.15904 0.24016,0.31715 0.36328,0.47266 0.13922,0.17585 0.28186,0.34822 0.42578,0.51953 0.12313,0.14655 0.24653,0.29234 0.37305,0.43554 0.1301,0.14728 0.26284,0.29184 0.39648,0.43555 0.14911,0.16033 0.29773,0.32068 0.45117,0.47656 0.0429,0.0436 0.0837,0.0895 0.12696,0.13282 l 22.63281,22.63281 v 0.67969 l -7.18164,-7.18165 h -1.64258 v 18.00586 l -8.10938,-8.10937 c -0.0524,-0.0524 -0.11098,-0.0986 -0.16601,-0.14844 -0.0502,-0.0455 -0.0999,-0.0915 -0.15234,-0.13476 -0.13247,-0.10937 -0.26894,-0.21556 -0.41602,-0.31055 -0.003,-0.002 -0.005,-0.004 -0.008,-0.006 -0.14978,-0.0963 -0.30924,-0.18116 -0.47461,-0.26172 -0.0566,-0.0275 -0.11737,-0.0505 -0.17578,-0.0762 -0.11345,-0.0498 -0.22904,-0.0982 -0.34961,-0.14063 -0.0695,-0.0244 -0.14101,-0.0464 -0.21289,-0.0684 -0.1333,-0.0407 -0.27042,-0.0776 -0.41211,-0.10937 -0.0551,-0.0123 -0.10965,-0.0242 -0.16602,-0.0352 -0.16831,-0.0328 -0.34347,-0.0579 -0.52344,-0.0781 -0.0498,-0.006 -0.0977,-0.013 -0.14843,-0.0176 -0.22969,-0.0208 -0.46624,-0.0352 -0.71485,-0.0352 -0.728,0 -1.42983,0.0892 -2.09375,0.23633 -1.99176,0.44149 -3.63784,1.40808 -4.58984,2.08008 l 0.74805,1.23047 4.5332,4.5332 c -0.004,0.001 -0.008,0.003 -0.0117,0.004 -0.51307,0.13548 -0.99158,0.28045 -1.4375,0.4375 -0.01,0.003 -0.0198,0.006 -0.0293,0.01 -0.44946,0.1593 -0.86794,0.33073 -1.25,0.51368 -0.3632,0.17392 -0.69077,0.35995 -0.99414,0.55664 -0.0323,0.0209 -0.066,0.0413 -0.0976,0.0625 -0.30191,0.20242 -0.57898,0.41505 -0.82032,0.64258 -0.1291,0.12135 -0.24925,0.24614 -0.36132,0.375 -0.0664,0.0766 -0.12509,0.15706 -0.18555,0.23632 -0.0623,0.0814 -0.12364,0.16372 -0.17969,0.24805 -0.05,0.0755 -0.0975,0.15262 -0.14258,0.23047 -0.066,0.1137 -0.12426,0.23078 -0.17968,0.34961 -0.0244,0.0525 -0.0538,0.10272 -0.0762,0.15625 -0.001,0.003 -0.003,0.005 -0.004,0.008 -0.0722,0.17332 -0.13076,0.35293 -0.18164,0.53711 -0.0151,0.055 -0.0258,0.11199 -0.0391,0.16797 -0.0262,0.1102 -0.0475,0.22381 -0.0664,0.33789 -0.0495,0.29982 -0.082,0.60822 -0.082,0.93555 0,0.37176 0.0321,0.71742 0.0859,1.04492 0.004,0.0218 0.006,0.0448 0.01,0.0664 0.0531,0.30086 0.13151,0.58015 0.22656,0.84375 0.017,0.047 0.0326,0.0948 0.0508,0.14063 0.10028,0.25238 0.21914,0.48586 0.35547,0.70312 0.0202,0.0321 0.0397,0.0644 0.0606,0.0957 0.14512,0.2178 0.30771,0.41801 0.48633,0.59961 0.008,0.008 0.0134,0.0192 0.0215,0.0273 l 102.16406,102.16406 a 186.14861,186.5504 0 0 0 11.67969,0.58594 186.14861,186.5504 0 0 0 186.14844,-186.55078 186.14861,186.5504 0 0 0 -0.17773,-5.03906 l -81.24024,-81.24024 c -0.019,-0.0188 -0.0395,-0.036 -0.0586,-0.0547 -0.14673,-0.14397 -0.29995,-0.28228 -0.45117,-0.42187 -0.12156,-0.1122 -0.2408,-0.2266 -0.36524,-0.33594 -0.13391,-0.11768 -0.27288,-0.22941 -0.41016,-0.34375 -0.15047,-0.12539 -0.29871,-0.25366 -0.45312,-0.375 -0.12361,-0.0971 -0.2528,-0.1887 -0.37891,-0.2832 -0.17026,-0.1276 -0.3389,-0.25613 -0.51367,-0.37891 -0.11786,-0.0828 -0.23948,-0.16159 -0.35937,-0.24218 -0.19867,-0.13355 -0.39737,-0.26712 -0.60157,-0.39454 -0.008,-0.005 -0.0155,-0.0107 -0.0234,-0.0156 -0.0627,-0.039 -0.12815,-0.0748 -0.19141,-0.11328 -0.24554,-0.14927 -0.49286,-0.29707 -0.74609,-0.4375 -0.10999,-0.061 -0.22452,-0.11649 -0.33594,-0.17578 -0.22317,-0.11879 -0.44496,-0.23959 -0.67383,-0.35157 -0.1113,-0.0544 -0.2272,-0.10343 -0.33984,-0.15625 -0.24097,-0.11301 -0.4815,-0.22651 -0.72852,-0.33203 -0.006,-0.002 -0.0117,-0.005 -0.0176,-0.008 -0.0756,-0.0322 -0.1543,-0.0603 -0.23046,-0.0918 -0.27311,-0.11297 -0.54601,-0.22432 -0.82618,-0.32812 -0.23842,-0.0883 -0.48305,-0.16839 -0.72656,-0.25 -0.11521,-0.0386 -0.22741,-0.0821 -0.34375,-0.11914 -0.005,-0.002 -0.0106,-0.002 -0.0156,-0.004 -0.20086,-0.0639 -0.40715,-0.12033 -0.61133,-0.17969 -0.20392,-0.0593 -0.40609,-0.12301 -0.61328,-0.17773 h -0.002 c -0.025,-0.007 -0.0511,-0.0111 -0.0762,-0.0176 -0.35753,-0.0933 -0.71691,-0.18219 -1.08398,-0.26172 -0.18695,-0.0405 -0.37898,-0.0725 -0.56836,-0.10937 -0.22853,-0.0445 -0.45547,-0.0916 -0.6875,-0.13086 -0.002,-3.4e-4 -0.004,-0.002 -0.006,-0.002 -0.0495,-0.008 -0.10079,-0.0134 -0.15039,-0.0215 -0.36684,-0.06 -0.73597,-0.11739 -1.11133,-0.16406 -0.41711,-0.0518 -0.84018,-0.0957 -1.26758,-0.13086 -0.009,-7.4e-4 -0.0183,-7e-4 -0.0273,-0.002 -0.43233,-0.0352 -0.86991,-0.0622 -1.3125,-0.0801 -0.005,-1.8e-4 -0.009,1.8e-4 -0.0137,0 -0.44729,-0.0179 -0.89993,-0.0274 -1.35743,-0.0274 z"
               transform="matrix(0.93749995,0,0,0.93749995,-32.43992,671.98324)"
               id="path4710"
               inkscape:connector-curvature="0" />
          </g>
        </g>
      </g>
    </g>
    <g
       style="display:inline"
       transform="translate(-1.7547608e-6,-6.6750146)"
       id="g4575"
       inkscape:label="logotext">
      <g
         aria-label="ap"
         id="text4144"
         style="line-height:0%;font-family:'Source Sans Pro';-inkscape-font-specification:'Source Sans Pro';letter-spacing:0px;word-spacing:0px;stroke-width:1px">
        <path
           d="m 93.245397,927.98562 q -10.98,0 -18.36,-6.48 -7.2,-6.48 -7.2,-18.36 0,-14.58 12.78,-22.14 12.78,-7.74 40.860003,-10.8 0,-5.58 -1.62,-10.44 -1.44,-4.86 -5.4,-7.92 -3.78,-3.24 -10.98,-3.24 -7.560003,0 -14.220003,2.88 -6.66,2.7 -11.88,6.12 l -5.76,-10.08 q 6.12,-4.14 14.94,-7.74 9,-3.6 19.440003,-3.6 16.02,0 23.22,9.9 7.2,9.72 7.2,25.92 v 53.82 h -12.24 l -1.44,-10.44 h -0.54 q -6.12,5.22 -13.32,9 -7.2,3.6 -15.480003,3.6 z m 4.14,-12.24 q 6.300003,0 11.880003,-2.7 5.76,-2.88 12.06,-8.46 v -23.76 q -14.76,1.62 -23.400003,4.5 -8.46,2.88 -12.06,7.02 -3.6,4.14 -3.6,9.9 0,7.2 4.32,10.44 4.5,3.06 10.8,3.06 z"
           style="font-size:180px;line-height:1.25;letter-spacing:-12.36px"
           id="path290" />
        <path
           d="m 151.44534,962.72562 v -124.38 h 12.24 l 1.26,10.08 h 0.54 q 5.94,-5.04 13.14,-8.64 7.2,-3.6 14.76,-3.6 16.92,0 25.74,12.24 9,12.06 9,32.4 0,14.76 -5.4,25.38 -5.22,10.62 -13.86,16.2 -8.64,5.58 -18.72,5.58 -5.94,0 -12.06,-2.7 -6.12,-2.7 -12.06,-7.38 l 0.36,15.3 v 29.52 z m 36.18,-47.34 q 10.8,0 17.82,-9.18 7.2,-9.18 7.2,-25.38 0,-14.4 -5.4,-23.22 -5.4,-8.82 -17.64,-8.82 -10.44,0 -23.22,11.88 v 45.72 q 5.94,5.04 11.34,7.02 5.58,1.98 9.9,1.98 z"
           style="font-size:180px;line-height:1.25;letter-spacing:-12.36px"
           id="path292" />
      </g>
      <g
         aria-label="2"
         id="text4148"
         style="line-height:0%;font-family:'Source Sans Pro';-inkscape-font-specification:'Source Sans Pro';letter-spacing:0px;word-spacing:0px;stroke-width:1px">
        <path
           d="m 236.31656,867.62878 v -8.2125 q 9.7875,-9.1125 16.9875,-16.5375 7.3125,-7.5375 11.25,-13.8375 4.05,-6.3 4.05,-11.5875 0,-5.625 -3.0375,-8.8875 -3.0375,-3.2625 -8.6625,-3.2625 -4.1625,0 -7.5375,2.3625 -3.375,2.25 -6.3,5.4 l -7.0875,-6.975 q 4.8375,-5.4 10.125,-8.325 5.4,-3.0375 12.6,-3.0375 10.35,0 16.5375,5.9625 6.1875,5.9625 6.1875,15.8625 0,6.6375 -3.7125,13.1625 -3.6,6.525 -9.7875,13.275 -6.075,6.6375 -13.5,14.0625 2.925,-0.225 6.1875,-0.45 3.2625,-0.225 5.85,-0.225 h 18.3375 v 11.25 z"
           style="font-weight:600;font-size:112.5px;line-height:1.25;-inkscape-font-specification:'Source Sans Pro Semi-Bold'"
           id="path295" />
      </g>
      <g
         aria-label="allpix squared"
         id="text4158"
         style="line-height:0%;letter-spacing:0px;word-spacing:0px;stroke-width:1px">
        <path
           d="m 73.901752,961.60713 q -1.295,0 -2.415,-0.49 -1.12,-0.49 -1.785,-1.505 -0.665,-1.015 -0.665,-2.59 0,-2.8 2.625,-4.235 2.66,-1.47 8.26,-2.1 0.035,-1.33 -0.28,-2.555 -0.315,-1.26 -1.19,-2.065 -0.84,-0.805 -2.52,-0.805 -1.715,0 -3.15,0.665 -1.4,0.665 -2.24,1.26 l -0.665,-1.05 q 0.875,-0.665 2.52,-1.4 1.645,-0.77 3.675,-0.77 1.995,0 3.15,0.875 1.155,0.875 1.645,2.345 0.49,1.435 0.49,3.22 v 10.78 h -1.225 l -0.175,-2.205 h -0.07 q -1.295,1.05 -2.835,1.855 -1.505,0.77 -3.15,0.77 z m 0.245,-1.26 q 1.435,0 2.8,-0.7 1.365,-0.7 2.975,-2.03 v -5.81 q -3.5,0.42 -5.565,1.12 -2.065,0.665 -2.975,1.68 -0.875,0.98 -0.875,2.345 0,1.82 1.085,2.625 1.085,0.77 2.555,0.77 z"
           style="font-weight:300;font-size:35px;line-height:1.25;font-family:'Source Sans Pro';-inkscape-font-specification:'Source Sans Pro Light'"
           id="path298" />
        <path
           d="m 89.371744,961.60713 q -1.96,0 -1.96,-2.59 v -23.03 h 1.435 v 23.24 q 0,0.595 0.21,0.84 0.245,0.245 0.595,0.245 0.105,0 0.21,0 0.14,-0.035 0.35,-0.07 l 0.245,1.12 q -0.455,0.245 -1.085,0.245 z"
           style="font-weight:300;font-size:35px;line-height:1.25;font-family:'Source Sans Pro';-inkscape-font-specification:'Source Sans Pro Light'"
           id="path300" />
        <path
           d="m 97.596699,961.60713 q -1.96,0 -1.96,-2.59 v -23.03 h 1.435 v 23.24 q 0,0.595 0.21,0.84 0.245,0.245 0.595,0.245 0.105,0 0.21,0 0.14,-0.035 0.35,-0.07 l 0.245,1.12 q -0.455,0.245 -1.085,0.245 z"
           style="font-weight:300;font-size:35px;line-height:1.25;font-family:'Source Sans Pro';-inkscape-font-specification:'Source Sans Pro Light'"
           id="path302" />
        <path
           d="m 103.86165,968.81713 v -24.43 h 1.225 l 0.175,2.135 h 0.07 q 1.225,-1.015 2.695,-1.785 1.47,-0.77 3.01,-0.77 3.395,0 5.075,2.345 1.68,2.345 1.68,6.23 0,2.835 -1.05,4.865 -1.015,2.03 -2.695,3.115 -1.68,1.085 -3.675,1.085 -1.19,0 -2.485,-0.525 -1.26,-0.56 -2.59,-1.54 v 9.275 z m 6.44,-8.505 q 1.75,0 3.08,-0.98 1.33,-0.98 2.1,-2.73 0.77,-1.785 0.77,-4.06 0,-2.1 -0.525,-3.745 -0.525,-1.645 -1.715,-2.59 -1.19,-0.945 -3.185,-0.945 -1.26,0 -2.625,0.735 -1.365,0.7 -2.905,2.065 v 10.08 q 1.435,1.19 2.73,1.68 1.33,0.49 2.275,0.49 z"
           style="font-weight:300;font-size:35px;line-height:1.25;font-family:'Source Sans Pro';-inkscape-font-specification:'Source Sans Pro Light'"
           id="path304" />
        <path
           d="m 122.86663,961.18713 v -16.8 h 1.435 v 16.8 z m 0.735,-20.895 q -0.56,0 -0.945,-0.385 -0.35,-0.385 -0.35,-1.015 0,-0.595 0.35,-0.945 0.385,-0.385 0.945,-0.385 0.56,0 0.91,0.385 0.385,0.35 0.385,0.945 0,0.63 -0.385,1.015 -0.35,0.385 -0.91,0.385 z"
           style="font-weight:300;font-size:35px;line-height:1.25;font-family:'Source Sans Pro';-inkscape-font-specification:'Source Sans Pro Light'"
           id="path306" />
        <path
           d="m 128.0466,961.18713 5.705,-8.785 -5.215,-8.015 h 1.575 l 2.765,4.34 q 0.385,0.665 0.84,1.365 0.49,0.665 0.945,1.365 h 0.14 q 0.455,-0.7 0.875,-1.365 0.42,-0.7 0.875,-1.365 l 2.66,-4.34 h 1.505 l -5.215,8.155 5.67,8.645 h -1.575 l -3.01,-4.655 q -0.455,-0.805 -0.98,-1.575 -0.525,-0.77 -1.015,-1.505 h -0.14 q -0.49,0.735 -0.98,1.505 -0.49,0.77 -0.98,1.575 l -2.94,4.655 z"
           style="letter-spacing:12.53px"
           id="path308" />
        <path
           d="m 181.00156,961.60713 q -1.96,0 -3.5,-0.63 -1.54,-0.63 -2.625,-1.715 l 0.77,-0.91 q 1.05,0.875 2.275,1.435 1.26,0.56 3.15,0.56 2.03,0 3.045,-1.015 1.05,-1.015 1.05,-2.345 0,-1.085 -0.63,-1.785 -0.63,-0.7 -1.575,-1.155 -0.945,-0.49 -1.925,-0.84 -1.295,-0.455 -2.52,-1.015 -1.19,-0.56 -1.96,-1.435 -0.77,-0.91 -0.77,-2.345 0,-1.785 1.365,-3.115 1.4,-1.33 4.025,-1.33 1.435,0 2.625,0.49 1.225,0.49 2.135,1.26 l -0.805,0.91 q -0.84,-0.63 -1.785,-1.015 -0.945,-0.385 -2.24,-0.385 -1.995,0 -2.94,0.98 -0.91,0.945 -0.91,2.135 0,0.945 0.525,1.575 0.56,0.63 1.435,1.05 0.875,0.42 1.89,0.805 1.33,0.525 2.59,1.085 1.295,0.525 2.1,1.47 0.84,0.91 0.84,2.555 0,1.26 -0.665,2.345 -0.665,1.05 -1.925,1.715 -1.225,0.665 -3.045,0.665 z"
           style="font-weight:300;font-size:35px;line-height:1.25;font-family:'Source Sans Pro';-inkscape-font-specification:'Source Sans Pro Light'"
           id="path310" />
        <path
           d="m 202.17653,968.81713 v -6.51 l 0.07,-3.36 q -1.12,1.085 -2.52,1.89 -1.4,0.77 -3.08,0.77 -3.15,0 -5.04,-2.275 -1.89,-2.275 -1.89,-6.51 0,-2.73 1.015,-4.69 1.05,-1.995 2.73,-3.08 1.715,-1.085 3.71,-1.085 1.505,0 2.66,0.56 1.155,0.525 2.345,1.435 h 0.07 l 0.175,-1.575 h 1.19 v 24.43 z m -5.355,-8.505 q 1.435,0 2.73,-0.7 1.295,-0.735 2.625,-2.1 v -10.045 q -1.33,-1.225 -2.52,-1.715 -1.19,-0.49 -2.45,-0.49 -1.68,0 -3.045,1.015 -1.365,1.015 -2.17,2.73 -0.77,1.68 -0.77,3.815 0,3.395 1.435,5.46 1.47,2.03 4.165,2.03 z"
           style="font-weight:300;font-size:35px;line-height:1.25;font-family:'Source Sans Pro';-inkscape-font-specification:'Source Sans Pro Light'"
           id="path312" />
        <path
           d="m 214.91651,961.60713 q -2.59,0 -3.85,-1.575 -1.225,-1.61 -1.225,-4.865 v -10.78 h 1.435 v 10.605 q 0,2.695 0.91,4.025 0.945,1.295 2.975,1.295 1.54,0 2.765,-0.84 1.225,-0.84 2.73,-2.66 v -12.425 h 1.435 v 16.8 h -1.225 l -0.14,-2.835 h -0.07 q -1.26,1.47 -2.625,2.38 -1.365,0.875 -3.115,0.875 z"
           style="font-weight:300;font-size:35px;line-height:1.25;font-family:'Source Sans Pro';-inkscape-font-specification:'Source Sans Pro Light'"
           id="path314" />
        <path
           d="m 232.2415,961.60713 q -1.295,0 -2.415,-0.49 -1.12,-0.49 -1.785,-1.505 -0.665,-1.015 -0.665,-2.59 0,-2.8 2.625,-4.235 2.66,-1.47 8.26,-2.1 0.035,-1.33 -0.28,-2.555 -0.315,-1.26 -1.19,-2.065 -0.84,-0.805 -2.52,-0.805 -1.715,0 -3.15,0.665 -1.4,0.665 -2.24,1.26 l -0.665,-1.05 q 0.875,-0.665 2.52,-1.4 1.645,-0.77 3.675,-0.77 1.995,0 3.15,0.875 1.155,0.875 1.645,2.345 0.49,1.435 0.49,3.22 v 10.78 h -1.225 l -0.175,-2.205 h -0.07 q -1.295,1.05 -2.835,1.855 -1.505,0.77 -3.15,0.77 z m 0.245,-1.26 q 1.435,0 2.8,-0.7 1.365,-0.7 2.975,-2.03 v -5.81 q -3.5,0.42 -5.565,1.12 -2.065,0.665 -2.975,1.68 -0.875,0.98 -0.875,2.345 0,1.82 1.085,2.625 1.085,0.77 2.555,0.77 z"
           style="font-weight:300;font-size:35px;line-height:1.25;font-family:'Source Sans Pro';-inkscape-font-specification:'Source Sans Pro Light'"
           id="path316" />
        <path
           d="m 245.7515,961.18713 v -16.8 h 1.225 l 0.175,3.15 h 0.07 q 0.84,-1.54 2.03,-2.555 1.225,-1.015 2.73,-1.015 0.455,0 0.84,0.07 0.42,0.07 0.805,0.28 l -0.385,1.26 q -0.35,-0.105 -0.665,-0.14 -0.28,-0.07 -0.77,-0.07 -1.155,0 -2.415,0.98 -1.225,0.98 -2.205,3.36 v 11.48 z"
           style="font-weight:300;font-size:35px;line-height:1.25;font-family:'Source Sans Pro';-inkscape-font-specification:'Source Sans Pro Light'"
           id="path318" />
        <path
           d="m 262.72644,961.60713 q -2.135,0 -3.885,-1.05 -1.75,-1.05 -2.8,-3.01 -1.05,-1.995 -1.05,-4.725 0,-2.765 1.05,-4.725 1.05,-1.995 2.73,-3.045 1.68,-1.085 3.535,-1.085 2.975,0 4.69,2.03 1.715,1.995 1.715,5.74 0,0.315 0,0.63 0,0.28 -0.07,0.63 h -12.145 q 0.035,2.135 0.805,3.815 0.805,1.645 2.24,2.59 1.435,0.945 3.325,0.945 1.4,0 2.52,-0.385 1.155,-0.385 2.03,-0.98 l 0.595,0.98 q -0.98,0.665 -2.205,1.155 -1.225,0.49 -3.08,0.49 z m -6.23,-9.87 h 10.85 q 0,-3.255 -1.4,-4.865 -1.365,-1.645 -3.64,-1.645 -1.435,0 -2.695,0.805 -1.26,0.77 -2.1,2.24 -0.84,1.435 -1.015,3.465 z"
           style="font-weight:300;font-size:35px;line-height:1.25;font-family:'Source Sans Pro';-inkscape-font-specification:'Source Sans Pro Light'"
           id="path320" />
        <path
           d="m 278.82639,961.60713 q -3.15,0 -5.04,-2.275 -1.89,-2.275 -1.89,-6.51 0,-2.73 1.015,-4.69 1.05,-1.995 2.73,-3.08 1.715,-1.085 3.71,-1.085 1.54,0 2.66,0.56 1.155,0.525 2.415,1.54 l -0.07,-3.115 v -6.965 h 1.435 v 25.2 h -1.225 l -0.14,-2.205 h -0.105 q -1.015,1.05 -2.415,1.855 -1.4,0.77 -3.08,0.77 z m 0.175,-1.295 q 1.435,0 2.73,-0.7 1.295,-0.735 2.625,-2.1 v -10.045 q -1.33,-1.225 -2.52,-1.715 -1.19,-0.49 -2.45,-0.49 -1.68,0 -3.045,1.015 -1.365,1.015 -2.17,2.73 -0.77,1.68 -0.77,3.815 0,3.395 1.435,5.46 1.47,2.03 4.165,2.03 z"
           style="font-weight:300;font-size:35px;line-height:1.25;font-family:'Source Sans Pro';-inkscape-font-specification:'Source Sans Pro Light'"
           id="path322" />
      </g>
    </g>
  </g>
</svg>
